<svg xmlns="http://www.w3.org/2000/svg" width="192" height="224" viewBox="-48 -68 96 112">
<g stroke="#78503a" stroke-width="2.5" stroke-linejoin="round">
<circle cx="0" cy="-8" r="41" fill="#a7663e"/>
<ellipse cx="-6" cy="-14" rx="32" ry="31" fill="#d09155" stroke="none"/>
<path d="M-27-27Q-19-43-6-42" fill="none" stroke="#edbd7e" stroke-width="5" stroke-linecap="round"/>
<path d="M21-40Q44-17 27 15L17 24" fill="none" stroke="#955734" stroke-width="5"/>
<path d="M-36 6Q1 23 36 5M0-48Q11-37 8-20" fill="none" stroke="#8b593a" stroke-width="2"/>
<path d="M-29-15 28-15 25-4-27-4Z" fill="#40362a"/>
<path d="m-15-10 8 0" stroke="#e3d39a" stroke-width="2"/>
<g fill="#e0ae6b" stroke-width="1.5"><circle cx="-32" cy="-21" r="3"/><circle cx="27" cy="-27" r="3"/><circle cx="-19" cy="21" r="3"/><circle cx="25" cy="14" r="3"/></g>
<path d="m-31 1 6 2m9-37 6-2m24 24 3 5" stroke="#668c70" stroke-width="2"/>
</g></svg>
